# xmcd
#
# Track frame offsets:
#	150
#	20815
#	38279
#
# Disc length: 880 seconds
#
# Revision: 2
# Processed by: cddbd v1.5.2PL0 Copyright (c) Steve Scherf et al.
# Submitted via: EasyCDDAExtractor 9.0.0.1
#
DISCID=18036e03
DTITLE=Whiskey River - Promotion Only
DYEAR=1900
DGENRE=blues
TTITLE0=A mia³o byæ inaczej
TTITLE1=Bad Moon Rising (J, Fogerty)
TTITLE2=Sweet Home Alabama (King, Rossington, Van Zant)
EXTD=
EXTT0=
EXTT1=
EXTT2=
PLAYORDER=
